<svg xmlns="http://www.w3.org/2000/svg" viewBox="0 0 600 400" width="100%" height="100%">
  <defs>
    <linearGradient id="cleanSky" x1="0%" y1="0%" x2="0%" y2="100%">
      <stop offset="0%" stop-color="#3182CE" />
      <stop offset="100%" stop-color="#90CDF4" />
    </linearGradient>
    <linearGradient id="metalCleanPillar" x1="0%" y1="0%" x2="100%" y2="0%">
      <stop offset="0%" stop-color="#718096" />
      <stop offset="50%" stop-color="#CBD5E0" />
      <stop offset="100%" stop-color="#4A5568" />
    </linearGradient>
  </defs>
  <rect width="600" height="400" fill="url(#cleanSky)" />
  <rect x="280" y="100" width="40" height="300" fill="url(#metalCleanPillar)" />
  <rect x="180" y="130" width="240" height="15" fill="#4A5568" rx="2" />
  <rect x="250" y="160" width="100" height="90" fill="#718096" stroke="#2D3748" stroke-width="4" rx="5" />
  <circle cx="300" cy="205" r="10" fill="#48BB78" />
  <rect x="195" y="145" width="10" height="255" fill="#2D3748" rx="2" />
  <rect x="395" y="145" width="10" height="255" fill="#2D3748" rx="2" />
  <path d="M 300 120 L 303 126 L 310 129 L 303 132 L 300 138 L 297 132 L 290 129 L 297 126 Z" fill="#FFF" />
  <rect x="20" y="20" width="130" height="35" rx="6" fill="#38A169" opacity="0.9" />
  <text x="85" y="42" fill="#FFF" font-family="monospace" font-size="12" font-weight="bold" text-anchor="middle">ELECTRICAL: REPAIRED</text>
</svg>
