<svg xmlns="http://www.w3.org/2000/svg" viewBox="0 0 600 400" width="100%" height="100%">
  <defs>
    <linearGradient id="nightSky" x1="0%" y1="0%" x2="0%" y2="100%">
      <stop offset="0%" stop-color="#1A202C" />
      <stop offset="100%" stop-color="#2D3748" />
    </linearGradient>
    <linearGradient id="metalPillar" x1="0%" y1="0%" x2="100%" y2="0%">
      <stop offset="0%" stop-color="#4A5568" />
      <stop offset="50%" stop-color="#718096" />
      <stop offset="100%" stop-color="#2D3748" />
    </linearGradient>
  </defs>
  <rect width="600" height="400" fill="url(#nightSky)" />
  <rect x="280" y="100" width="40" height="300" fill="url(#metalPillar)" />
  <rect x="180" y="130" width="240" height="15" fill="#2D3748" />
  <rect x="250" y="160" width="100" height="90" fill="#4A5568" stroke="#1A202C" stroke-width="4" rx="5" />
  <path d="M 270 180 L 330 230 M 330 180 L 270 230" stroke="#E53E3E" stroke-width="3" />
  <path d="M 310 160 L 325 120 L 305 130 L 335 90" stroke="#F6E05E" stroke-width="4" fill="none" />
  <path d="M 280 200 L 250 210 L 265 195 L 230 220" stroke="#F6E05E" stroke-width="3" fill="none" />
  <circle cx="310" cy="120" r="15" fill="#F6E05E" opacity="0.4" />
  <circle cx="250" cy="210" r="10" fill="#ED8936" opacity="0.4" />
  <path d="M 190 145 C 190 200, 240 280, 240 330" stroke="#111" stroke-width="3" fill="none" />
  <path d="M 410 145 C 410 210, 390 260, 430 310" stroke="#111" stroke-width="2" fill="none" />
  <rect x="20" y="20" width="130" height="35" rx="6" fill="#E53E3E" opacity="0.9" />
  <text x="85" y="42" fill="#FFF" font-family="monospace" font-size="12" font-weight="bold" text-anchor="middle">ELECTRICAL: HAZARD</text>
</svg>
