<svg xmlns="http://www.w3.org/2000/svg" viewBox="0 0 600 400" width="100%" height="100%">
  <defs>
    <linearGradient id="stormySky" x1="0%" y1="0%" x2="0%" y2="100%">
      <stop offset="0%" stop-color="#718096" />
      <stop offset="100%" stop-color="#2D3748" />
    </linearGradient>
  </defs>
  <rect width="600" height="400" fill="url(#stormySky)" />
  <rect y="320" width="600" height="80" fill="#5C4D3C" />
  <g transform="translate(100, 330) rotate(75)">
    <rect x="0" y="-20" width="40" height="240" fill="#7B341E" rx="4" />
    <path d="M 20 80 Q -30 60 -40 40" stroke="#7B341E" stroke-width="8" stroke-linecap="round" fill="none" />
    <path d="M 20 160 Q 70 140 80 110" stroke="#7B341E" stroke-width="8" stroke-linecap="round" fill="none" />
  </g>
  <circle cx="280" cy="230" r="50" fill="#2F855A" opacity="0.95" />
  <circle cx="340" cy="210" r="45" fill="#276749" opacity="0.95" />
  <circle cx="230" cy="240" r="40" fill="#2F855A" opacity="0.9" />
  <circle cx="390" cy="220" r="40" fill="#22543D" opacity="0.95" />
  <path d="M 0 360 L 600 360" stroke="#1A202C" stroke-width="8" />
  <path d="M 60 330 Q 80 290 120 310 Q 150 330 140 340 Z" fill="#2D1E10" />
  <path d="M 70 320 Q 50 300 40 310" stroke="#1A1105" stroke-width="4" fill="none" />
  <path d="M 80 325 Q 70 290 55 285" stroke="#1A1105" stroke-width="5" fill="none" />
  <rect x="20" y="20" width="130" height="35" rx="6" fill="#E53E3E" opacity="0.9" />
  <text x="85" y="42" fill="#FFF" font-family="monospace" font-size="12" font-weight="bold" text-anchor="middle">ENV: TREE BLOCK</text>
</svg>
