<svg xmlns="http://www.w3.org/2000/svg" viewBox="0 0 600 400" width="100%" height="100%">
  <defs>
    <linearGradient id="sunnyBlue" x1="0%" y1="0%" x2="0%" y2="100%">
      <stop offset="0%" stop-color="#63B3ED" />
      <stop offset="100%" stop-color="#EBF8FF" />
    </linearGradient>
  </defs>
  <rect width="600" height="400" fill="url(#sunnyBlue)" />
  <circle cx="500" cy="80" r="25" fill="#ECC94B" />
  <rect y="320" width="600" height="80" fill="#718096" />
  <rect y="340" width="600" height="60" fill="#4A5568" />
  <line x1="0" y1="340" x2="600" y2="340" stroke="#FFF" stroke-width="3" />
  <g transform="translate(150, 200)">
    <rect x="18" y="40" width="6" height="85" fill="#7B341E" />
    <circle cx="20" cy="30" r="25" fill="#48BB78" />
    <circle cx="35" cy="15" r="20" fill="#38A169" />
    <circle cx="5" cy="18" r="20" fill="#2F855A" />
    <rect x="5" y="60" width="30" height="65" fill="none" stroke="#A0AEC0" stroke-width="2" />
    <line x1="5" y1="80" x2="35" y2="80" stroke="#A0AEC0" stroke-width="1" />
    <line x1="5" y1="100" x2="35" y2="100" stroke="#A0AEC0" stroke-width="1" />
    <line x1="15" y1="60" x2="15" y2="125" stroke="#A0AEC0" stroke-width="1" />
    <line x1="25" y1="60" x2="25" y2="125" stroke="#A0AEC0" stroke-width="1" />
  </g>
  <path d="M 300 150 L 303 156 L 310 159 L 303 162 L 300 168 L 297 162 L 290 159 L 297 156 Z" fill="#FFF" />
  <rect x="20" y="20" width="130" height="35" rx="6" fill="#38A169" opacity="0.9" />
  <text x="85" y="42" fill="#FFF" font-family="monospace" font-size="12" font-weight="bold" text-anchor="middle">ENV: ECO COMPLETED</text>
</svg>
