<svg xmlns="http://www.w3.org/2000/svg" viewBox="0 0 600 400" width="100%" height="100%">
  <defs>
    <linearGradient id="roadGrad" x1="0%" y1="0%" x2="0%" y2="100%">
      <stop offset="0%" stop-color="#2D3748" />
      <stop offset="100%" stop-color="#1A202C" />
    </linearGradient>
    <linearGradient id="skyGrad" x1="0%" y1="0%" x2="0%" y2="100%">
      <stop offset="0%" stop-color="#4A5568" />
      <stop offset="100%" stop-color="#2D3748" />
    </linearGradient>
  </defs>
  <rect width="600" height="400" fill="url(#skyGrad)" />
  <path d="M 0 400 L 250 150 L 350 150 L 600 400 Z" fill="url(#roadGrad)" />
  <path d="M 295 150 L 305 150 L 310 180 L 290 180 Z" fill="#E2E8F0" opacity="0.6" />
  <path d="M 290 200 L 310 200 L 315 250 L 285 250 Z" fill="#E2E8F0" opacity="0.8" />
  <path d="M 280 290 L 320 290 L 330 380 L 270 380 Z" fill="#E2E8F0" />
  <ellipse cx="230" cy="280" rx="45" ry="18" fill="#111" stroke="#4A5568" stroke-width="2" />
  <path d="M 195 282 Q 220 268 255 278 Q 275 290 240 295 Q 210 295 195 282" fill="#222" />
  <ellipse cx="370" cy="330" rx="60" ry="22" fill="#111" stroke="#4A5568" stroke-width="3" />
  <path d="M 320 330 Q 360 310 410 325 Q 430 345 370 350 Q 330 345 320 330" fill="#222" />
  <path d="M 230 280 L 170 295 L 150 290" stroke="#4A5568" stroke-width="2" fill="none" />
  <path d="M 370 330 L 440 350 L 460 345" stroke="#4A5568" stroke-width="2" fill="none" />
  <g transform="translate(160, 240)">
    <path d="M 20 60 L 30 10 L 40 10 L 50 60 Z" fill="#ED8936" />
    <path d="M 24 40 L 46 40 L 43 25 L 27 25 Z" fill="#FFF" />
    <ellipse cx="35" cy="60" rx="25" ry="6" fill="#ED8936" />
  </g>
  <rect x="20" y="20" width="130" height="35" rx="6" fill="#E53E3E" opacity="0.9" />
  <text x="85" y="42" fill="#FFF" font-family="monospace" font-size="12" font-weight="bold" text-anchor="middle">ROADS: DAMAGED</text>
</svg>
