<svg xmlns="http://www.w3.org/2000/svg" viewBox="0 0 600 400" width="100%" height="100%">
  <defs>
    <linearGradient id="concreteCleanGrad" x1="0%" y1="0%" x2="0%" y2="100%">
      <stop offset="0%" stop-color="#A0AEC0" />
      <stop offset="100%" stop-color="#718096" />
    </linearGradient>
    <linearGradient id="manholeCleanGrad" x1="0%" y1="0%" x2="100%" y2="100%">
      <stop offset="0%" stop-color="#718096" />
      <stop offset="100%" stop-color="#2D3748" />
    </linearGradient>
  </defs>
  <rect width="600" height="400" fill="url(#concreteCleanGrad)" />
  <circle cx="300" cy="200" r="90" fill="#2D3748" stroke="#1A202C" stroke-width="4" />
  <circle cx="300" cy="200" r="82" fill="url(#manholeCleanGrad)" stroke="#1A202C" stroke-width="3" />
  <line x1="218" y1="200" x2="382" y2="200" stroke="#1A202C" stroke-width="4" />
  <line x1="300" y1="118" x2="300" y2="282" stroke="#1A202C" stroke-width="4" />
  <circle cx="300" cy="200" r="30" fill="none" stroke="#1A202C" stroke-width="4" />
  <text x="300" y="205" fill="#1A202C" font-family="monospace" font-weight="bold" font-size="12" text-anchor="middle">SEWER</text>
  <circle cx="300" cy="200" r="110" fill="none" stroke="#ECC94B" stroke-width="6" stroke-dasharray="10 15" />
  <path d="M 120 100 L 123 106 L 130 109 L 123 112 L 120 118 L 117 112 L 110 109 L 117 106 Z" fill="#FFF" />
  <path d="M 480 280 L 483 286 L 490 289 L 483 292 L 480 298 L 477 292 L 470 289 L 477 286 Z" fill="#FFF" />
  <rect x="20" y="20" width="130" height="35" rx="6" fill="#38A169" opacity="0.9" />
  <text x="85" y="42" fill="#FFF" font-family="monospace" font-size="12" font-weight="bold" text-anchor="middle">SANITATION: FIXED</text>
</svg>
