<svg xmlns="http://www.w3.org/2000/svg" viewBox="0 0 600 400" width="100%" height="100%">
  <defs>
    <linearGradient id="concreteGrad" x1="0%" y1="0%" x2="0%" y2="100%">
      <stop offset="0%" stop-color="#718096" />
      <stop offset="100%" stop-color="#4A5568" />
    </linearGradient>
    <linearGradient id="manholeGrad" x1="0%" y1="0%" x2="100%" y2="100%">
      <stop offset="0%" stop-color="#4A5568" />
      <stop offset="100%" stop-color="#1A202C" />
    </linearGradient>
  </defs>
  <rect width="600" height="400" fill="url(#concreteGrad)" />
  <path d="M 300 200 C 150 200, 100 350, 80 400 L 520 400 C 500 350, 450 200, 300 200" fill="#1A202C" opacity="0.9" />
  <path d="M 300 200 Q 200 240 180 320 T 150 400 Z" fill="#111" />
  <circle cx="300" cy="200" r="90" fill="#2D3748" stroke="#1A202C" stroke-width="4" />
  <g transform="translate(10, -10)">
    <circle cx="290" cy="200" r="80" fill="url(#manholeGrad)" stroke="#2D3748" stroke-width="3" />
    <line x1="210" y1="200" x2="370" y2="200" stroke="#1A202C" stroke-width="4" />
    <line x1="290" y1="120" x2="290" y2="280" stroke="#1A202C" stroke-width="4" />
    <circle cx="290" cy="200" r="30" fill="none" stroke="#1A202C" stroke-width="4" />
    <text x="290" y="205" fill="#1A202C" font-family="monospace" font-weight="bold" font-size="12" text-anchor="middle">SEWER</text>
  </g>
  <path d="M 50 120 L 550 140" stroke="#ED8936" stroke-dasharray="30 15" stroke-width="15" />
  <rect x="20" y="20" width="130" height="35" rx="6" fill="#E53E3E" opacity="0.9" />
  <text x="85" y="42" fill="#FFF" font-family="monospace" font-size="12" font-weight="bold" text-anchor="middle">SANITATION: CRIT</text>
</svg>
