<svg xmlns="http://www.w3.org/2000/svg" viewBox="0 0 600 400" width="100%" height="100%">
  <defs>
    <linearGradient id="wallCleanGrad" x1="0%" y1="0%" x2="0%" y2="100%">
      <stop offset="0%" stop-color="#EDF2F7" />
      <stop offset="100%" stop-color="#CBD5E0" />
    </linearGradient>
  </defs>
  <rect width="600" height="400" fill="url(#wallCleanGrad)" />
  <path d="M 0 320 L 600 320" stroke="#A0AEC0" stroke-width="2" />
  <path d="M 100 320 L 50 400" stroke="#A0AEC0" stroke-width="2" />
  <path d="M 300 320 L 300 400" stroke="#A0AEC0" stroke-width="2" />
  <path d="M 500 320 L 550 400" stroke="#A0AEC0" stroke-width="2" />
  <g transform="translate(180, 160)">
    <rect x="0" y="0" width="90" height="160" rx="8" fill="#3182CE" stroke="#2B6CB0" stroke-width="3" />
    <rect x="-5" y="-15" width="100" height="20" rx="4" fill="#2B6CB0" />
    <rect x="30" y="-25" width="30" height="12" rx="2" fill="#1A365D" />
    <path d="M 45 60 L 55 75 L 35 75 Z" fill="#FFF" opacity="0.9" />
    <text x="45" y="110" fill="#FFF" font-family="sans-serif" font-weight="bold" font-size="12" text-anchor="middle">DRY WASTE</text>
  </g>
  <g transform="translate(330, 160)">
    <rect x="0" y="0" width="90" height="160" rx="8" fill="#38A169" stroke="#2F855A" stroke-width="3" />
    <rect x="-5" y="-15" width="100" height="20" rx="4" fill="#2F855A" />
    <rect x="30" y="-25" width="30" height="12" rx="2" fill="#1C4532" />
    <path d="M 45 60 L 55 75 L 35 75 Z" fill="#FFF" opacity="0.9" />
    <text x="45" y="110" fill="#FFF" font-family="sans-serif" font-weight="bold" font-size="12" text-anchor="middle">WET WASTE</text>
  </g>
  <path d="M 100 100 L 103 106 L 110 109 L 103 112 L 100 118 L 97 112 L 90 109 L 97 106 Z" fill="#3182CE" />
  <path d="M 500 120 L 503 126 L 510 129 L 503 132 L 500 138 L 497 132 L 490 129 L 497 126 Z" fill="#38A169" />
  <rect x="20" y="20" width="130" height="35" rx="6" fill="#38A169" opacity="0.9" />
  <text x="85" y="42" fill="#FFF" font-family="monospace" font-size="12" font-weight="bold" text-anchor="middle">WASTE: CLEARED</text>
</svg>
