<svg xmlns="http://www.w3.org/2000/svg" viewBox="0 0 600 400" width="100%" height="100%">
  <defs>
    <linearGradient id="wallGrad" x1="0%" y1="0%" x2="0%" y2="100%">
      <stop offset="0%" stop-color="#4A5568" />
      <stop offset="100%" stop-color="#1A202C" />
    </linearGradient>
  </defs>
  <rect width="600" height="400" fill="url(#wallGrad)" />
  <g transform="translate(150, 260) rotate(-65)">
    <rect x="0" y="0" width="70" height="120" rx="10" fill="#718096" stroke="#4A5568" stroke-width="3" />
    <line x1="15" y1="10" x2="15" y2="110" stroke="#4A5568" stroke-width="3" />
    <line x1="35" y1="10" x2="35" y2="110" stroke="#4A5568" stroke-width="3" />
    <line x1="55" y1="10" x2="55" y2="110" stroke="#4A5568" stroke-width="3" />
  </g>
  <path d="M 120 380 Q 250 200 450 380 Z" fill="#2D3748" stroke="#1A202C" stroke-width="4" />
  <ellipse cx="220" cy="340" rx="35" ry="25" fill="#4A5568" transform="rotate(15, 220, 340)" />
  <ellipse cx="330" cy="350" rx="40" ry="30" fill="#1A202C" transform="rotate(-10, 330, 350)" />
  <ellipse cx="280" cy="320" rx="30" ry="22" fill="#718096" />
  <circle cx="160" cy="370" r="6" fill="#ECC94B" />
  <rect x="380" y="360" width="15" height="15" fill="#E53E3E" rx="3" />
  <path d="M 400 375 L 430 365" stroke="#FFF" stroke-width="4" />
  <g transform="translate(260, 210)">
    <circle cx="0" cy="0" r="3" fill="#000" />
    <ellipse cx="-4" cy="-4" rx="4" ry="2" fill="#A0AEC0" opacity="0.7" />
    <ellipse cx="4" cy="-4" rx="4" ry="2" fill="#A0AEC0" opacity="0.7" />
  </g>
  <g transform="translate(320, 180)">
    <circle cx="0" cy="0" r="3" fill="#000" />
    <ellipse cx="-4" cy="-4" rx="4" ry="2" fill="#A0AEC0" opacity="0.7" />
    <ellipse cx="4" cy="-4" rx="4" ry="2" fill="#A0AEC0" opacity="0.7" />
  </g>
  <rect x="20" y="20" width="130" height="35" rx="6" fill="#E53E3E" opacity="0.9" />
  <text x="85" y="42" fill="#FFF" font-family="monospace" font-size="12" font-weight="bold" text-anchor="middle">WASTE: OVERFLOW</text>
</svg>
