<svg xmlns="http://www.w3.org/2000/svg" viewBox="0 0 600 400" width="100%" height="100%">
  <defs>
    <linearGradient id="earthGrad" x1="0%" y1="0%" x2="0%" y2="100%">
      <stop offset="0%" stop-color="#4A3728" />
      <stop offset="100%" stop-color="#2D1E10" />
    </linearGradient>
    <linearGradient id="pipeGrad" x1="0%" y1="0%" x2="0%" y2="100%">
      <stop offset="0%" stop-color="#718096" />
      <stop offset="50%" stop-color="#A0AEC0" />
      <stop offset="100%" stop-color="#4A5568" />
    </linearGradient>
  </defs>
  <rect width="600" height="400" fill="url(#earthGrad)" />
  <rect x="0" y="180" width="600" height="60" fill="url(#pipeGrad)" />
  <rect x="120" y="180" width="80" height="60" fill="#C05621" opacity="0.7" />
  <rect x="350" y="180" width="110" height="60" fill="#C05621" opacity="0.8" />
  <path d="M 280 200 L 320 195 L 340 220 L 290 225 Z" fill="#2D3748" />
  <path d="M 300 205 C 300 120, 240 60, 200 80 C 240 120, 280 180, 300 205" fill="#63B3ED" opacity="0.8" />
  <path d="M 310 205 C 330 110, 390 50, 440 90 C 390 120, 340 185, 310 205" fill="#63B3ED" opacity="0.8" />
  <ellipse cx="305" cy="110" rx="40" ry="25" fill="#90CDF4" opacity="0.6" />
  <ellipse cx="300" cy="340" rx="180" ry="40" fill="#3182CE" opacity="0.5" />
  <ellipse cx="250" cy="350" rx="100" ry="25" fill="#2B6CB0" opacity="0.7" />
  <rect x="20" y="20" width="130" height="35" rx="6" fill="#E53E3E" opacity="0.9" />
  <text x="85" y="42" fill="#FFF" font-family="monospace" font-size="12" font-weight="bold" text-anchor="middle">WATER: LEAKING</text>
</svg>
