<svg xmlns="http://www.w3.org/2000/svg" viewBox="0 0 600 400" width="100%" height="100%">
  <defs>
    <linearGradient id="earthCleanGrad" x1="0%" y1="0%" x2="0%" y2="100%">
      <stop offset="0%" stop-color="#5C4D3C" />
      <stop offset="100%" stop-color="#3E3020" />
    </linearGradient>
    <linearGradient id="shinyPipeGrad" x1="0%" y1="0%" x2="0%" y2="100%">
      <stop offset="0%" stop-color="#3182CE" />
      <stop offset="30%" stop-color="#63B3ED" />
      <stop offset="50%" stop-color="#EBF8FF" />
      <stop offset="70%" stop-color="#4299E1" />
      <stop offset="100%" stop-color="#2B6CB0" />
    </linearGradient>
  </defs>
  <rect width="600" height="400" fill="url(#earthCleanGrad)" />
  <rect x="0" y="170" width="600" height="70" fill="url(#shinyPipeGrad)" />
  <rect x="280" y="155" width="40" height="100" fill="#4A5568" rx="5" stroke="#E2E8F0" stroke-width="2" />
  <circle cx="300" cy="170" r="5" fill="#A0AEC0" />
  <circle cx="300" cy="190" r="5" fill="#A0AEC0" />
  <circle cx="300" cy="210" r="5" fill="#A0AEC0" />
  <circle cx="300" cy="230" r="5" fill="#A0AEC0" />
  <path d="M 210 130 L 215 140 L 225 145 L 215 150 L 210 160 L 205 150 L 195 145 L 205 140 Z" fill="#FFF" />
  <path d="M 390 120 L 393 126 L 400 129 L 393 132 L 390 138 L 387 132 L 380 129 L 387 126 Z" fill="#FFF" />
  <path d="M 0 400 Q 150 350 300 370 T 600 350 L 600 400 Z" fill="#718096" opacity="0.5" />
  <rect x="20" y="20" width="130" height="35" rx="6" fill="#38A169" opacity="0.9" />
  <text x="85" y="42" fill="#FFF" font-family="monospace" font-size="12" font-weight="bold" text-anchor="middle">WATER: REPAIRED</text>
</svg>
